<svg viewBox="0 0 291 68.5" xmlns="http://www.w3.org/2000/svg"><path d="m75.13 19.33v30h-5.26v-13.54h-13.65v13.53h-5.22v-30h5.25v11.94h13.62v-11.93zm-29.41 30h-5.26v-30h5.26zm-10.43 0h-5.54l-13.66-22.07h-.09v22.06h-5v-30h5.54l13.7 22.1h.08v-22.09h5zm58.34-15.1-18.55-33.53h-68.34a6.18 6.18 0 0 0 -6.17 6.18v54.74a6.18 6.18 0 0 0 6.17 6.18h68.26z" fill="#636569"/><path d="m79.67 67.8 18.59-33.58-18.53-33.52h4.64a8.65 8.65 0 0 1 6.85 4l16.3 29.48-16.35 29.58a8.68 8.68 0 0 1 -6.86 4z" fill="#636569"/><path d="m79.67 67.8 18.6-33.58-18.54-33.52h4.64a8.65 8.65 0 0 1 6.85 4l16.3 29.48-16.35 29.58a8.68 8.68 0 0 1 -6.86 4z" fill="#316094"/><path d="m283.3 35.84a2.48 2.48 0 1 1 5 0zm7.09 1.4c.36-2.89-1.51-5.63-4.55-5.63-2.87 0-4.66 2.35-4.66 5.09 0 3 1.7 5.07 4.72 5.07a4.21 4.21 0 0 0 4.36-3.28h-2a2.25 2.25 0 0 1 -2.35 1.61 2.58 2.58 0 0 1 -2.6-2.86zm-15.58-3.78h1.6v5.68c0 1.61.45 2.47 2.67 2.47.46 0 .91-.08 1.38-.12v-1.64a3.43 3.43 0 0 1 -.9.08c-.95 0-1-.45-1-1.33v-5.14h1.93v-1.59h-1.93v-2.87h-2.12v2.89h-1.6zm-.94-1.59h-2.12v5.6c0 1.49-.6 2.63-2.37 2.63-1.15 0-1.85-.62-1.85-2.32v-5.91h-2.12v6.13c0 2.51 1.08 3.78 3.6 3.78a3.23 3.23 0 0 0 2.74-1.6v1.34h2.08zm-15.3 1.59h1.6v5.68c0 1.61.45 2.47 2.67 2.47.46 0 .91-.08 1.38-.12v-1.64a3.43 3.43 0 0 1 -.9.08c-.95 0-1-.45-1-1.33v-5.14h1.92v-1.59h-1.94v-2.87h-2.13v2.89h-1.6zm-3.13-3.25h2.12v-2h-2.12zm0 11.3h2.12v-9.64h-2.12zm-6.9-8h1.6v5.68c0 1.61.45 2.47 2.67 2.47.46 0 .91-.08 1.37-.12v-1.69a3.32 3.32 0 0 1 -.89.08c-.95 0-1-.45-1-1.33v-5.14h1.91v-1.59h-1.91v-2.87h-2.13v2.89h-1.6zm-8.89 5c0 2.27 1.84 3.35 4.26 3.35 2 0 4.31-.83 4.31-3.13 0-1.9-1.57-2.46-3.11-2.81s-3.11-.6-3.11-1.64c0-.84 1.13-1 1.75-1 .93 0 1.77.28 2 1.28h2.21c-.26-2.14-2.05-3-4-3-1.75 0-4 .66-4 2.76s1.53 2.52 3.1 2.86 3.09.48 3.15 1.6-1.46 1.32-2.21 1.32c-1.14 0-2.07-.45-2.18-1.68zm-9.85 3.09h2.13v-5.77a2.35 2.35 0 0 1 2.33-2.54c1.25 0 1.84.65 1.88 2.16v6.06h2.13v-6.62c0-2.16-1.32-3.28-3.41-3.28a3.48 3.48 0 0 0 -3 1.72v-1.46h-2zm-4.55 0h2.33v-13.4h-2.33zm-13.51-5.67a2.48 2.48 0 1 1 5 0zm7.08 1.4c.36-2.89-1.51-5.63-4.55-5.63-2.87 0-4.66 2.35-4.66 5.09 0 3 1.7 5.07 4.72 5.07a4.22 4.22 0 0 0 4.36-3.28h-2a2.24 2.24 0 0 1 -2.35 1.61 2.56 2.56 0 0 1 -2.59-2.86zm-15.49 4.24-.24.74c-.26.82-.51 1.34-1.49 1.34a5.82 5.82 0 0 1 -1-.13v1.79a9 9 0 0 0 1.47.11c2.22 0 2.72-1.56 3.41-3.3l3.75-10.16h-2.23l-2.44 7.2-2.56-7.29h-2.33zm-13.7 0h9.71v-2h-7.34v-3.97h6.71v-1.9h-6.71v-3.49h7.25v-2h-9.58zm-9.25 0h2.12v-13.37h-2.12zm-2-7.1c0-2-2-2.8-3.85-2.8-2.13 0-4.23.73-4.38 3.21h2.12c.09-1 .93-1.53 2.13-1.53.86 0 2 .21 2 1.3 0 1.25-1.36 1.09-2.89 1.37-1.79.2-3.71.59-3.71 3 0 1.88 1.57 2.81 3.3 2.81a5 5 0 0 0 3.34-1.17c.17.87.78 1.17 1.64 1.17a5.46 5.46 0 0 0 1.34-.24v-1.53a2.71 2.71 0 0 1 -.52 0c-.39 0-.51-.21-.51-.73zm-2.12 3.86c0 1.34-1.45 1.83-2.39 1.83-.74 0-1.95-.28-1.95-1.23 0-1.12.82-1.46 1.73-1.61a7.61 7.61 0 0 0 2.61-.58zm-16.31 3.24h2.12v-5.74a2.35 2.35 0 0 1 2.33-2.54c1.25 0 1.85.65 1.89 2.16v6.06h2.12v-6.62c0-2.16-1.32-3.28-3.41-3.28a3.45 3.45 0 0 0 -3 1.72v-1.46h-2zm-6.3.26c3.09 0 4.86-2.12 4.86-5.09s-1.77-5.07-4.86-5.07-4.87 2.13-4.87 5.07 1.77 5.09 4.87 5.09m0-1.67c-1.9 0-2.75-1.74-2.75-3.42s.85-3.39 2.75-3.39 2.74 1.73 2.74 3.39-.84 3.42-2.74 3.42m-8.52-9.89h2.12v-2h-2.12zm0 11.3h2.12v-9.7h-2.12zm-6.9-8h1.6v5.68c0 1.61.45 2.47 2.67 2.47.46 0 .91-.08 1.38-.12v-1.75a3.43 3.43 0 0 1 -.9.08c-1 0-1-.45-1-1.33v-5.14h1.92v-1.59h-1.92v-2.87h-2.13v2.89h-1.6zm-1 .95c0-2-2-2.8-3.86-2.8-2.13 0-4.23.73-4.38 3.21h2.13c.09-1 .93-1.53 2.12-1.53.86 0 2 .21 2 1.3 0 1.25-1.36 1.09-2.9 1.37-1.78.2-3.7.59-3.7 3 0 1.88 1.56 2.81 3.3 2.81a4.92 4.92 0 0 0 3.33-1.17c.17.87.79 1.17 1.65 1.17a5.3 5.3 0 0 0 1.33-.24v-1.58a2.71 2.71 0 0 1 -.52 0c-.39 0-.5-.21-.5-.73zm-2.12 3.86c0 1.34-1.46 1.83-2.39 1.83-.75 0-2-.28-2-1.23 0-1.12.82-1.46 1.73-1.61a7.67 7.67 0 0 0 2.62-.58zm-18.87 3.24h2.22v-9.9l6.06 9.79h2.48v-13.31h-2.21v9.8l-6.08-9.8h-2.46z" fill="#636569"/></svg>