<svg xmlns="http://www.w3.org/2000/svg" viewBox="0 0 204.09 53.58"><defs><style>.mono-white{fill:#fff;}</style></defs><title>The University of Queensland, Australia</title><desc>White horizontal logo of The University of Queensland. https://www.uq.edu.au</desc><path class="mono-white" d="M379.88,421.41h-3.11V422h.15c.46,0,.71.08.86.28l.17.19c.19.2.35.38.59.66v8.53a.77.77,0,0,1-.86.69h-.23V433h3.41v-.62h-.2c-.44,0-.89-.21-.89-.69v-7.05l7.15,8.31.05.05h.46V422.73a.76.76,0,0,1,.84-.7h.27v-.62h-3.36V422h.16a.8.8,0,0,1,.88.7v6l-6.29-7.29Zm-39.35,25.27.78-1.81.78,1.81ZM338.44,449h-.23v.39h1.93V449H340a.32.32,0,0,1-.25-.12.23.23,0,0,1,0-.18l.58-1.36h2.14l.59,1.36a.22.22,0,0,1,0,.2.24.24,0,0,1-.19.1h-.28v.39h2.44V449h-.17c-.19,0-.36-.16-.5-.49l-2.48-5.74a.28.28,0,0,0-.18-.15.26.26,0,0,0-.22.1L339,448.5c-.11.24-.29.52-.56.52m-5.26-6.25h-2.53v.39h.18c.22,0,.47.06.47.57v4.72c0,.4-.14.57-.47.57h-.18v.39h2.53V449H333c-.35,0-.49-.17-.49-.57v-4.72c0-.51.28-.57.49-.57h.14ZM321.59,433h8.62l1.06-3.34h-.66l0,.11c-.47,1.48-1.22,2.11-2.5,2.11h-2.84a.41.41,0,0,1-.41-.43v-4h3.09c.47,0,.71.47.71.93v.2h.6v-3.43h-.6v.23c0,.43-.22.9-.71.9h-3.09v-3.77h3.35c.81,0,1.36.64,1.42,1.67v.15h.58l-.21-2.92h-8.39V422h.2c.6,0,.89.34.89,1v8.3c0,.7-.28,1-.89,1h-.2Zm1.12,9.77h-2.53v.39h.16c.12,0,.47,0,.47.59v4.69c0,.52-.27.58-.47.58h-.16v.39H325l.59-2h-.41l0,.07c-.26.84-.69,1.22-1.4,1.22h-1.5c-.11,0-.23-.15-.23-.3v-4.69c0-.41.15-.59.5-.59h.15ZM310.82,433h8.67l1-3.34h-.63l0,.11c-.45,1.46-1.23,2.11-2.49,2.11h-2.82a.43.43,0,0,1-.45-.43v-4h3.13c.41,0,.66.47.66.93v.2h.6v-3.43h-.6v.23c0,.43-.23.9-.66.9h-3.13v-3.77h3.34c.85,0,1.41.64,1.45,1.67v.15h.58l-.21-2.92h-8.41V422h.23c.61,0,.88.33.88,1.05v8.3c0,.71-.27,1-.88,1h-.23Zm-.09,13.68.79-1.81.78,1.81ZM308.65,449h-.23v.39h1.92V449h-.19a.31.31,0,0,1-.24-.12.17.17,0,0,1,0-.18l.58-1.36h2.13l.59,1.36a.22.22,0,0,1,0,.2.26.26,0,0,1-.2.1h-.28v.39h2.45V449H315c-.2,0-.36-.16-.5-.49L312,442.79a.25.25,0,0,0-.17-.15.24.24,0,0,0-.22.1l-2.39,5.76c-.11.24-.3.52-.56.52m-9.38-5.55a1,1,0,0,1,.43-.07,1.23,1.23,0,0,1,1.3,1.19,1.28,1.28,0,0,1-1.3,1.24h-.43Zm-.11-.7h-1.78v.39h.17c.31,0,.47.18.47.57v4.72c0,.51-.25.57-.47.57h-.17v.39h2.52V449h-.15c-.34,0-.48-.17-.48-.57v-2h.26l2.24,3h1.62V449h-.15c-.17,0-.31-.17-.46-.34l-1.86-2.42a1.88,1.88,0,0,0,1.39-1.67h0a1.63,1.63,0,0,0-.48-1.24,3.64,3.64,0,0,0-2.67-.58m-12.49.15-.06,1.59H287v-.1c0-.64.27-.94.7-.94h1.19v5c0,.37-.16.53-.52.53h-.13v.39h2.5V449h-.13c-.36,0-.49-.14-.49-.53v-5h1.18c.29,0,.64.1.68.94v.1h.37l-.07-1.59a.17.17,0,0,0-.15-.15h-5.3a.16.16,0,0,0-.15.15m-15.6-15.47h3.13c.61,0,.64.78.64.93v.21h.63v-3.44h-.63v.23c0,.15,0,.91-.64.91h-3.13v-3.78H275c.79,0,1.37.67,1.43,1.67v.15H277l-.22-2.91h-8.93V422h.23c.61,0,.88.33.88,1.07v8.27c0,.71-.27,1-.88,1h-.23v.6h4.38v-.6h-.27c-.6,0-.86-.3-.86-1Zm-2.61,15.32H266v.39h.11a.49.49,0,0,1,.45.51v3.47a2.4,2.4,0,0,0,2.65,2.33,2.28,2.28,0,0,0,2.56-2.21V443.5c0-.16.06-.34.31-.34h.31v-.39h-2v.39h.28a.32.32,0,0,1,.34.34v3.76a1.61,1.61,0,0,1-1.75,1.52,1.47,1.47,0,0,1-1.45-1.61v-3.5a.51.51,0,0,1,.45-.51h.14Zm-11.9,3.91.78-1.81.78,1.81ZM254.47,449h-.23v.39h1.93V449H256a.32.32,0,0,1-.25-.12.23.23,0,0,1,0-.18l.58-1.36h2.14l.59,1.36a.22.22,0,0,1,0,.2.24.24,0,0,1-.19.1h-.28v.39H261V449h-.17c-.19,0-.36-.16-.5-.49l-2.48-5.74a.28.28,0,0,0-.18-.15.26.26,0,0,0-.22.1L255,448.5c-.11.24-.3.52-.57.52m-46.12-27.34h1.05c-.08-.32-.29-.56-.53-.56s-.44.24-.52.56m1.05.56h-1.05c.08.32.29.56.52.56s.45-.24.53-.56m-1.05-5.33h1.05c-.08-.32-.29-.56-.53-.56s-.44.24-.52.56m1.05.56h-1.05c.08.32.29.56.52.56s.45-.24.53-.56M223.25,425a3,3,0,0,0-1.71.28,3.79,3.79,0,0,1-1.42.36,3.65,3.65,0,0,1-1.42-.37A3,3,0,0,0,217,425h-5.15V422.8h-2.08a1.06,1.06,0,0,1-.9.56,1.21,1.21,0,0,1-1.09-1.12h-.31a.28.28,0,1,1,0-.56h.31a1.21,1.21,0,0,1,1.09-1.12,1.06,1.06,0,0,1,.9.56h2.08V418h-2.08a1.06,1.06,0,0,1-.9.56,1.21,1.21,0,0,1-1.09-1.12h-.31a.29.29,0,0,1-.28-.28.28.28,0,0,1,.28-.28h.31a1.21,1.21,0,0,1,1.09-1.12,1.06,1.06,0,0,1,.9.56h2.08v-1.59l1.11-.63v9.73h4a3.91,3.91,0,0,1,2.14.36,1.87,1.87,0,0,0,2,0,3.91,3.91,0,0,1,2.14-.36h4v-9.6l1.12.5v1.59h2.7a.84.84,0,1,1,0,1.68h-2.7v3.09h2.7a.84.84,0,1,1,0,1.68h-2.7V425Zm2.91-2.12h-2.91a5,5,0,0,0-2.57.45v-8.42c0-.83.86-1.33,2-1.33,1.67,0,2.57.54,3.49.37Zm-6.59.42a5,5,0,0,0-2.57-.45h-2.92V413.9c.93.17,1.83-.37,3.5-.37,1.13,0,2,.5,2,1.33Zm7.71,3.45c5.58.89,8,3,9.57,6.29h0V406.13h0c-1.56,3.28-4,5.4-9.57,6.29.89-5.58,3-8,6.29-9.57H206.68c3.28,1.56,5.4,4,6.29,9.57-5.59-.89-8-3-9.57-6.29h0V433h0c1.56-3.28,4-5.4,9.57-6.29-.89,5.59-3,8-6.29,9.57h26.89c-3.28-1.56-5.4-4-6.29-9.57m14.31-2c0,10.28-9,20.77-21.45,24.65-12.51-3.88-21.48-14.37-21.48-24.65V398.12h42.93Zm1.11,0V397H197.55v27.75c0,10.9,9.36,21.72,22.26,25.72l.33.11.33-.11c12.88-4,22.23-14.83,22.23-25.72m21.42-23.92h.67l-.15-3.56a.3.3,0,0,0-.25-.27H252.88a.3.3,0,0,0-.26.27l-.15,3.56h.67v-.15c0-1,.37-2.23,1.66-2.23h2.48v11.18a1.17,1.17,0,0,1-1.09,1.19h-.8v.72h6.46v-.72h-.79a1.17,1.17,0,0,1-1.1-1.19V398.45h2.48c1.29,0,1.62,1.21,1.66,2.23Zm-.65,24.79c0,3.79-1.64,6.33-4.08,6.33h-.05a3.21,3.21,0,0,1-2.26-.95,7.47,7.47,0,0,1-1.76-5.27c0-1.41.28-6,4.06-6.23,1.49.08,4,1,4.09,6.12m2.84.11c0-4.31-2.84-7.36-6.91-7.41a6.87,6.87,0,0,0-4.61,1.69,7.9,7.9,0,0,0-2.32,5.72c0,4.28,2.91,7.39,6.92,7.39s6.92-3.11,6.92-7.39M273,411.54h4.4v-.62h-.27c-.61,0-.86-.31-.86-1V401.6c0-.71.26-1,.86-1h.27V400H273v.62h.23c.61,0,.9.33.9,1v3.46h-4.5V401.6c0-.69.28-1,.85-1h.23V400h-4.35v.62h.22c.62,0,.86.29.86,1v8.29c0,.75-.23,1-.86,1h-.22v.62h4.35v-.62h-.23c-.59,0-.85-.32-.85-1v-3.71h4.5v3.71c0,.72-.27,1-.9,1H273Zm7.4,31.48a2,2,0,0,0-2.38.17,1.85,1.85,0,0,0-.56,1.5,1.76,1.76,0,0,0,.88,1.33c.16.11.34.21.51.31a5.06,5.06,0,0,1,1.42,1,.88.88,0,0,1-.21,1.29,1.05,1.05,0,0,1-1.17.11,1.79,1.79,0,0,1-1-1.62V447h-.4v2.38h.38v-.08a.34.34,0,0,1,.17-.24.24.24,0,0,1,.23,0,3,3,0,0,0,1.36.34,1.9,1.9,0,0,0,1.19-.38,1.78,1.78,0,0,0,.56-2.26,5.07,5.07,0,0,0-2.09-1.66l-.12-.07a1.13,1.13,0,0,1-.68-.92.79.79,0,0,1,.44-.7,1,1,0,0,1,1.06,0,1.68,1.68,0,0,1,.84,1.46v.11h.4v-2.32h-.38l0,.09a.29.29,0,0,1-.11.2.46.46,0,0,1-.33,0m7.39-31.48,1.05-3.34h-.67l0,.11a2.43,2.43,0,0,1-2.5,2.09h-2.84a.4.4,0,0,1-.4-.41v-4h3.1c.44,0,.65.47.65.9v.23h.64v-3.43h-.64v.22c0,.38-.2.91-.65.91h-3.1V401h3.34c.81,0,1.36.64,1.42,1.67v.15h.6l-.21-2.89h-8.43v.62h.22c.61,0,.89.33.89,1v8.29c0,.71-.27,1-.89,1h-.22v.62ZM294,425.73c0,3.09-1.25,6.22-4,6.22-2.48,0-4.08-2.44-4.08-6.22,0-2.43.59-4.19,1.7-5.25a3.51,3.51,0,0,1,2.29-1h0c2,0,4.1,1.93,4.1,6.23m2.9.1c-.09-5.94-4.62-7.51-7-7.52h0c-4,0-6.91,3.15-6.91,7.42,0,3.72,2.22,6.65,5.51,7.3a11.13,11.13,0,0,0,8.29,3.28h.16v-.69h-.15a5.44,5.44,0,0,1-4.41-2.87,7,7,0,0,0,4.51-6.92m11.7-28.09h.63V397h-4.4v.74h.7a.73.73,0,0,1,.79.83v8.28c0,2.36-2,3.43-3.91,3.43a3.31,3.31,0,0,1-3.32-3.6V398.9a1.17,1.17,0,0,1,1.12-1.16h.35V397H295v.74h.33a1.15,1.15,0,0,1,1.11,1.16v7.71c0,3,2.37,5.12,5.77,5.12s5.59-2,5.59-4.88v-8.28c0-.57.26-.83.81-.83m.35,24.29h.51v-.62H306V422h.46a.58.58,0,0,1,.63.63v6.59A2.84,2.84,0,0,1,304,432a2.6,2.6,0,0,1-2.56-2.84V423a.93.93,0,0,1,.82-.93h.22v-.62h-4.26v.47l0,.15h.16a.91.91,0,0,1,.84.93V429c0,2.4,1.9,4.08,4.62,4.08s4.46-1.55,4.46-3.87v-6.59a.55.55,0,0,1,.58-.63m12.65-21.45h.23V400h-3.43v.63h.25a.74.74,0,0,1,.83.69v6L313.14,400H310v.63h.16c.44,0,.7,0,.9.27l.4.46.31.37v8.55c0,.46-.43.67-.83.67h-.28v.64h3.46v-.64h-.23c-.43,0-.88-.23-.88-.67v-7.05l7.17,8.31.05.05h.46V401.27c0-.46.44-.69.86-.69m1.61,11h4.33v-.62h-.2c-.61,0-.88-.32-.88-1V401.6c0-.7.28-1,.88-1h.2V400h-4.33v.62h.2c.65,0,.93.32.93,1v8.29c0,.72-.27,1-.93,1h-.2Zm16.55-11h.16V400H337v.62h.32a.4.4,0,0,1,.34.19.36.36,0,0,1,.06.35l-2.65,6.6-2.9-6.59a.38.38,0,0,1,0-.36.43.43,0,0,1,.31-.19H333V400h-4.14v.62h.16c.35,0,.62.26.9.85l4.3,9.95,0,0a.45.45,0,0,0,.34.17h0a.33.33,0,0,0,.29-.18l3.91-9.91c.31-.66.56-.91.89-.91m1.56,22.16v6L335,421.47l0-.06h-3.11V422H332c.48,0,.73.07.88.28l.17.18c.19.2.35.38.59.66v8.53c0,.47-.45.69-.86.69h-.25V433h3.44v-.62h-.23c-.43,0-.86-.21-.86-.69v-7.05L342,433l.05.05h.46V422.73a.77.77,0,0,1,.84-.69h.25v-.63h-3.41V422h.23c.44,0,.88.25.88.69m8.62-11.19L351,408.2h-.67l0,.11c-.46,1.44-1.23,2.09-2.5,2.09H345a.41.41,0,0,1-.41-.41v-4h3.09c.52,0,.66.57.66.9v.23h.65v-3.43h-.65v.22c0,.35-.18.91-.66.91h-3.09V401h3.34c.81,0,1.37.66,1.43,1.67v.15h.6l-.24-2.89h-8.41v.62h.23c.6,0,.86.32.86,1v8.29c0,.72-.26,1-.86,1h-.23v.62ZM347,423.85a1.48,1.48,0,0,1,.8-1.25,1.82,1.82,0,0,1,1.88.06,3,3,0,0,1,1.49,2.6v.16h.65v-4h-.62l0,.13a.53.53,0,0,1-.21.37.76.76,0,0,1-.6-.08c-1.67-.8-3-.69-4.15.31a3.21,3.21,0,0,0-1,2.62,3.1,3.1,0,0,0,1.54,2.31l.87.52a9.37,9.37,0,0,1,2.51,1.85,1.55,1.55,0,0,1-.37,2.29,1.88,1.88,0,0,1-2.08.21,3.17,3.17,0,0,1-1.78-2.88v-.15h-.64V433h.62l0-.11a.62.62,0,0,1,.3-.43.47.47,0,0,1,.44,0,5.3,5.3,0,0,0,2.37.61,3.33,3.33,0,0,0,2.07-.67,3.08,3.08,0,0,0,1-3.93c-.64-1.25-2.3-2.16-3.63-2.89l-.24-.13a2.06,2.06,0,0,1-1.21-1.65m9.34-18.53h-.78v-4.19a1.73,1.73,0,0,1,.78-.13,2.2,2.2,0,0,1,2.31,2.11,2.27,2.27,0,0,1-2.31,2.21m3.66,6.22h2.79v-.62h-.23c-.31,0-.56-.3-.83-.61L358.44,406a3.29,3.29,0,0,0,2.45-2.92,2.8,2.8,0,0,0-.83-2.15c-.85-.8-2.38-1.13-4.67-1h-3.11v.62h.27c.58,0,.86.34.86,1v8.3c0,.7-.26,1-.86,1h-.27v.62h4.38v-.62h-.23c-.61,0-.88-.32-.88-1v-3.56H356ZM362.74,433l1-3.39h-.66l0,.11c-.46,1.5-1.23,2.16-2.5,2.16h-2.62c-.21,0-.43-.28-.43-.55v-8.22c0-.75.28-1.08.91-1.08h.22v-.62h-4.38V422h.25c.58,0,.87.35.87,1.08v8.22c0,.94-.5,1.05-.87,1.05h-.25V433Zm5.4-4.73,1.42-3.26,1.41,3.26Zm-3.62,4.11h-.37V433h3.32v-.63h-.3a.58.58,0,0,1-.46-.22.36.36,0,0,1,0-.33l1-2.42h3.78l1,2.41a.4.4,0,0,1,0,.37.44.44,0,0,1-.36.19h-.46V433h4.23v-.63h-.27c-.35,0-.65-.28-.9-.87l-4.36-10.08a.43.43,0,0,0-.29-.24.37.37,0,0,0-.36.16l-4.19,10.11c-.19.42-.53.92-1,.92m6.6-25.37c-.67-1.27-2.35-2.21-3.87-3a2,2,0,0,1-1.18-1.61,1.5,1.5,0,0,1,.76-1.3,1.89,1.89,0,0,1,1.94.09,3,3,0,0,1,1.46,2.56v.16h.6v-4h-.57l0,.13a.42.42,0,0,1-.18.32.85.85,0,0,1-.67-.08c-1.7-.77-3-.67-4.09.33a3.2,3.2,0,0,0-1,2.61,3,3,0,0,0,1.53,2.3l.82.5a10.21,10.21,0,0,1,2.56,1.87,1.51,1.51,0,0,1-.38,2.29,1.83,1.83,0,0,1-2.05.24,3.19,3.19,0,0,1-1.78-2.91v-.15h-.64v4.14H365l0-.11a.66.66,0,0,1,.35-.45.43.43,0,0,1,.39,0,4.93,4.93,0,0,0,2.29.6,3.4,3.4,0,0,0,2.13-.69,3.09,3.09,0,0,0,1-3.93m2.36,4.53h4.38v-.62h-.23c-.61,0-.88-.32-.88-1V401.6c0-.7.28-1,.88-1h.23V400h-4.38v.62h.27c.6,0,.86.32.86,1v8.29c0,.72-.26,1-.86,1h-.27Zm15.57-8.6h.6l-.13-2.76a.26.26,0,0,0-.22-.23H380a.25.25,0,0,0-.22.22l-.11,2.77h.58v-.15c.06-1.13.47-1.67,1.26-1.67h2.11V410c0,.66-.28.95-.93.95h-.21v.62h4.34v-.62h-.21c-.63,0-.88-.27-.88-.95v-8.85h2.09c.49,0,1.15.17,1.23,1.67Zm5.64,19.41a4.64,4.64,0,0,1,3.72,1.34,5.25,5.25,0,0,1,1.18,3.49c0,3-1.77,4.78-4.87,4.78a3.41,3.41,0,0,1-1-.11v-9.38a1.76,1.76,0,0,1,.93-.12m0-.93h-4.44V422h.25c.37,0,.86.11.86,1.07v8.23c0,.72-.26,1.05-.86,1.05h-.25V433h5.38a5.82,5.82,0,0,0,6-5.8,5.63,5.63,0,0,0-1.45-4c-1.19-1.25-3-1.85-5.46-1.77m6.92-20.82V400h-3.08v.65H399a.24.24,0,0,1,.21.15.37.37,0,0,1,0,.37l-2.45,4.17-2.69-4.1a.42.42,0,0,1,0-.42.33.33,0,0,1,.28-.17h.42V400h-4.31v.65h.15c.29,0,.66.09,1.05.82l3.43,5.23v3.24c0,.75-.26,1.05-.88,1.05H394v.62h4.43v-.62h-.23c-.65,0-.91-.28-.91-1v-3.36l3-5.21a1.43,1.43,0,0,1,1.14-.77Z" transform="translate(-197.55 -397)"/></svg>