<svg xmlns="http://www.w3.org/2000/svg" viewBox="0 0 380.94 100"><defs><style>.uq-purple{fill:#51247A;}</style></defs><title>The University of Queensland, Australia</title><desc>Horizontal logo of The University of Queensland. https://www.uq.edu.au</desc><path class="uq-purple" d="M340.32,45.57h-5.81v1.16h.29c.86,0,1.32.14,1.6.52l.31.35c.36.37.66.7,1.11,1.24V64.75c0,.85-.81,1.29-1.61,1.29h-.42V67.2h6.37V66h-.39c-.82,0-1.64-.4-1.64-1.29V51.6l13.33,15.5.09.1h.87V48A1.41,1.41,0,0,1,356,46.73h.51V45.57h-6.27v1.16h.29c.81,0,1.65.49,1.65,1.29V59.28L340.41,45.67ZM266.87,92.73l1.47-3.37,1.45,3.37ZM263,97.1h-.43v.72h3.59V97.1h-.35a.58.58,0,0,1-.46-.23.32.32,0,0,1,0-.33L266.38,94h4l1.1,2.54a.38.38,0,0,1,0,.37.46.46,0,0,1-.36.19h-.52v.72h4.56V97.1h-.32c-.36,0-.66-.3-.93-.91l-4.64-10.72a.47.47,0,0,0-.33-.27.43.43,0,0,0-.41.18L264,96.13c-.21.44-.56,1-1,1m-9.82-11.66h-4.72v.72h.33c.41,0,.88.12.88,1.06V96c0,.74-.26,1.06-.88,1.06h-.33v.72h4.72V97.1h-.27c-.64,0-.91-.32-.91-1.06V87.22c0-1,.52-1.06.91-1.06h.27ZM231.52,67.2H247.6l2-6.24h-1.23l-.07.21c-.87,2.76-2.26,3.94-4.66,3.94h-5.3a.75.75,0,0,1-.76-.81V56.83h5.75c.88,0,1.34.88,1.34,1.74V59h1.12V52.54h-1.12V53c0,.81-.42,1.69-1.34,1.69h-5.75v-7h6.24c1.52,0,2.54,1.2,2.66,3.12V51h1.08l-.39-5.44H231.52v1.16h.39c1.1,0,1.64.64,1.64,2V64.17c0,1.31-.52,1.91-1.64,1.91h-.39Zm2.09,18.24h-4.72v.72h.3c.22,0,.89,0,.89,1.11V96c0,1-.51,1.08-.89,1.08h-.3v.72H238l1.1-3.66h-.76l0,.14c-.49,1.58-1.3,2.28-2.63,2.28h-2.79c-.21,0-.43-.29-.43-.56V87.27c0-.78.28-1.11.94-1.11h.27ZM211.42,67.2H227.6L229.5,61h-1.19l-.06.21c-.86,2.72-2.3,3.94-4.66,3.94h-5.25a.81.81,0,0,1-.86-.81V56.83h5.84c.79,0,1.25.89,1.25,1.74V59h1.12V52.54h-1.12V53c0,.81-.43,1.69-1.25,1.69h-5.84v-7h6.24c1.59,0,2.63,1.2,2.71,3.12V51h1.08l-.4-5.44h-15.7v1.16h.43c1.14,0,1.65.6,1.65,2V64.17c0,1.32-.51,1.91-1.65,1.91h-.43Zm-.16,25.53,1.47-3.37,1.45,3.37Zm-3.89,4.37h-.43v.72h3.59V97.1h-.35a.58.58,0,0,1-.46-.23.32.32,0,0,1,0-.33L210.76,94h4l1.1,2.54a.38.38,0,0,1,0,.37.46.46,0,0,1-.36.19h-.52v.72h4.56V97.1h-.32c-.36,0-.66-.3-.93-.92l-4.64-10.71a.47.47,0,0,0-.33-.27.43.43,0,0,0-.41.18l-4.45,10.75c-.21.44-.56,1-1,1M189.86,86.74a2.6,2.6,0,0,1,.81-.13,2.3,2.3,0,0,1,2.41,2.22,2.37,2.37,0,0,1-2.41,2.31h-.81Zm-.2-1.3h-3.33v.72h.32c.59,0,.88.35.88,1.06V96c0,.94-.47,1.06-.88,1.06h-.32v.72H191V97.1h-.27c-.64,0-.91-.32-.91-1.06V92.29h.48l4.2,5.53h3V97.1h-.27c-.32,0-.59-.31-.87-.64L193,91.94a3.52,3.52,0,0,0,2.59-3.11,3,3,0,0,0-.89-2.31C193.74,85.66,192.1,85.31,189.66,85.44ZM296.38,15.53H294.9V7.71a3.42,3.42,0,0,1,1.48-.24,4.09,4.09,0,0,1,4.29,3.94,4.22,4.22,0,0,1-4.29,4.12m6.82,11.62h5.21V26H308c-.59,0-1.06-.56-1.56-1.15l-6.12-8c2.78-1,4.6-3.11,4.57-5.45a5.28,5.28,0,0,0-1.53-4c-1.6-1.49-4.46-2.11-8.73-1.87H288.8V6.68h.52c1.08,0,1.6.62,1.6,1.91V24.08c0,1.32-.49,1.91-1.6,1.91h-.52v1.16H297V26h-.43c-1.14,0-1.65-.59-1.65-1.91V17.44h.93Zm-6.82-11.62H294.9V7.71a3.42,3.42,0,0,1,1.48-.24,4.09,4.09,0,0,1,4.29,3.94,4.22,4.22,0,0,1-4.29,4.12m6.82,11.62h5.21V26H308c-.59,0-1.06-.56-1.56-1.15l-6.12-8c2.78-1,4.6-3.11,4.57-5.45a5.28,5.28,0,0,0-1.53-4c-1.6-1.49-4.46-2.11-8.73-1.87H288.8V6.68h.52c1.08,0,1.6.62,1.6,1.91V24.08c0,1.32-.49,1.91-1.6,1.91h-.52v1.16H297V26h-.43c-1.14,0-1.65-.59-1.65-1.91V17.44h.93Zm-6.82-11.62H294.9V7.71a3.42,3.42,0,0,1,1.48-.24,4.09,4.09,0,0,1,4.29,3.94,4.22,4.22,0,0,1-4.29,4.12m6.82,11.62h5.21V26H308c-.59,0-1.06-.56-1.56-1.15l-6.12-8c2.78-1,4.6-3.11,4.57-5.45a5.28,5.28,0,0,0-1.53-4c-1.6-1.49-4.46-2.11-8.73-1.87H288.8V6.68h.52c1.08,0,1.6.62,1.6,1.91V24.08c0,1.32-.49,1.91-1.6,1.91h-.52v1.16H297V26h-.43c-1.14,0-1.65-.59-1.65-1.91V17.44h.93Zm-6.82-11.62H294.9V7.71a3.42,3.42,0,0,1,1.48-.24,4.09,4.09,0,0,1,4.29,3.94,4.22,4.22,0,0,1-4.29,4.12m6.82,11.62h5.21V26H308c-.59,0-1.06-.56-1.56-1.15l-6.12-8c2.78-1,4.6-3.11,4.57-5.45a5.28,5.28,0,0,0-1.53-4c-1.6-1.49-4.46-2.11-8.73-1.87H288.8V6.68h.52c1.08,0,1.6.62,1.6,1.91V24.08c0,1.32-.49,1.91-1.6,1.91h-.52v1.16H297V26h-.43c-1.14,0-1.65-.59-1.65-1.91V17.44h.93ZM166.35,85.7l-.11,3h.67v-.18c.07-1.18.5-1.76,1.31-1.76h2.22v9.38c0,.69-.29,1-1,1h-.25v.72h4.67V97.1h-.25c-.66,0-.91-.27-.91-1V86.73h2.19c.56,0,1.2.2,1.29,1.76v.18h.69l-.13-3a.3.3,0,0,0-.27-.27h-9.91a.3.3,0,0,0-.27.26M137.23,56.84h5.84c1.14,0,1.2,1.45,1.2,1.74V59h1.17V52.55h-1.17V53c0,.29-.06,1.7-1.2,1.7h-5.84V47.62h7.25c1.47,0,2.55,1.26,2.66,3.12l0,.28h1.08l-.4-5.44H131.17v1.16h.43c1.14,0,1.64.62,1.64,2V64.18c0,1.32-.5,1.91-1.64,1.91h-.43v1.12h8.18V66.09h-.52c-1.12,0-1.6-.56-1.6-1.87Zm-4.86,28.6h-4.59V86l0,.2h.2a.94.94,0,0,1,.86,1v6.46c0,2.57,2,4.37,4.94,4.37s4.78-1.67,4.78-4.14v-7c0-.28.1-.63.58-.63h.57v-.72h-3.66v.72h.52a.59.59,0,0,1,.64.63v7A3,3,0,0,1,134,96.65a2.74,2.74,0,0,1-2.7-3V87.12a1,1,0,0,1,.84-1h.27Zm-22.23,7.29,1.47-3.37,1.45,3.37Zm-3.89,4.37h-.42v.72h3.58V97.1h-.34a.58.58,0,0,1-.47-.23.35.35,0,0,1,0-.33L109.65,94h4l1.1,2.54a.41.41,0,0,1,0,.37.46.46,0,0,1-.36.19h-.52v.72h4.56V97.1h-.32c-.36,0-.66-.3-.92-.92l-4.65-10.71a.47.47,0,0,0-.32-.27.42.42,0,0,0-.41.18L107.3,96.13c-.2.44-.55,1-1,1m-86.09-51h2c-.15-.59-.54-1-1-1s-.83.45-1,1m2,1h-2c.15.59.55,1,1,1s.83-.45,1-1m-2-9.95h2c-.15-.6-.54-1.05-1-1.05s-.83.45-1,1.05m2,1h-2c.15.6.55,1,1,1s.83-.45,1-1M48,52.23a5.59,5.59,0,0,0-3.19.52,6.91,6.91,0,0,1-2.65.68,6.83,6.83,0,0,1-2.65-.69,5.63,5.63,0,0,0-3.18-.51H26.69V48.16H22.82a2,2,0,0,1-1.68,1.05,2.26,2.26,0,0,1-2-2.09h-.57a.53.53,0,0,1,0-1h.57a2.26,2.26,0,0,1,2-2.09A2,2,0,0,1,22.82,45h3.87V39.26H22.82a2,2,0,0,1-1.68,1,2.26,2.26,0,0,1-2-2.09h-.57a.52.52,0,0,1,0-1h.57a2.25,2.25,0,0,1,2-2.09,2,2,0,0,1,1.68,1h3.87v-3L28.78,32V50.14h7.53c2.35,0,2.51.06,4,.68a4.63,4.63,0,0,0,1.84.52A4.64,4.64,0,0,0,44,50.82c1.48-.62,1.64-.68,4-.68h7.53V32.22l2.08.94v3h5a1.57,1.57,0,0,1,0,3.14h-5V45h5a1.57,1.57,0,1,1,0,3.13h-5v4.07Zm5.44-3.95H48a9.14,9.14,0,0,0-4.79.84V33.39c0-1.54,1.59-2.47,3.71-2.47,3.12,0,4.79,1,6.52.68Zm-12.32.78a9.18,9.18,0,0,0-4.79-.84H30.87V31.54c1.73.34,3.4-.68,6.52-.68,2.11,0,3.71.94,3.71,2.48ZM55.5,55.5c10.42,1.65,15,5.63,17.88,11.75V17c-2.92,6.12-7.46,10.1-17.88,11.75,1.65-10.42,5.63-15,11.75-17.87H17c6.11,2.91,10.09,7.48,11.75,17.87-10.42-1.66-15-5.63-17.87-11.75V67.25c2.91-6.12,7.45-10.09,17.87-11.74-1.66,10.38-5.64,15-11.75,17.87H67.25c-6.12-2.92-10.1-7.46-11.75-17.88m26.7-3.7c0,19.19-16.74,38.77-40,46C18.82,90.57,2.09,71,2.09,51.8V2.09H82.2Zm2.09,0V0H0V51.8c0,20.34,17.48,40.53,41.56,48l.61.19.62-.19c24.05-7.49,41.5-27.67,41.5-48m40-44.64h1.25L125.23.51a.56.56,0,0,0-.47-.51H103.27a.55.55,0,0,0-.47.51l-.28,6.65h1.25V6.88c.09-1.9.7-4.17,3.11-4.17h4.62V23.59a2.19,2.19,0,0,1-2,2.22H108v1.34H120V25.81h-1.48a2.2,2.2,0,0,1-2-2.22V2.71h4.63c2.41,0,3,2.27,3.1,4.17ZM123,53.33c0,7.07-3.06,11.92-7.61,11.92h-.1a6,6,0,0,1-4.22-1.79c-2.07-2-3.27-5.62-3.28-9.83,0-2.64.52-11.26,7.59-11.62C118.2,42.16,122.88,43.74,123,53.33Zm5.31.3c0-8-5.31-13.73-12.91-13.84a12.87,12.87,0,0,0-8.6,3.17c-2.64,2.4-4.1,6-4.32,10.67,0,8,5.43,13.79,12.91,13.79S128.35,61.62,128.35,53.63Zm12.46-26.48H149V26h-.51c-1.13,0-1.61-.57-1.61-1.91V8.59c0-1.33.5-1.92,1.61-1.92H149V5.52h-8.22V6.67h.43c1.15,0,1.69.61,1.69,1.92V15h-8.42V8.59c0-1.29.53-1.92,1.61-1.92h.43V5.52h-8.14V6.67h.43c1.15,0,1.6.54,1.6,1.92V24.07c0,1.39-.43,1.91-1.6,1.91h-.43v1.17h8.14V26h-.43c-1.11,0-1.61-.59-1.61-1.91V17.13h8.42v6.94c0,1.34-.51,1.91-1.69,1.91h-.43Zm13.81,58.74c-1.78-.85-3.23-.74-4.44.33a3.47,3.47,0,0,0-1,2.81,3.32,3.32,0,0,0,1.65,2.48l1,.57A9.64,9.64,0,0,1,154.38,94a1.63,1.63,0,0,1-.39,2.4,2,2,0,0,1-2.19.22,3.35,3.35,0,0,1-1.86-3v-.19h-.75v4.43h.71l0-.15a.6.6,0,0,1,.31-.44.47.47,0,0,1,.44,0,5.68,5.68,0,0,0,2.53.65,3.66,3.66,0,0,0,2.23-.72,3.33,3.33,0,0,0,1-4.22c-.69-1.33-2.46-2.31-3.89-3.09l-.23-.13a2.15,2.15,0,0,1-1.28-1.73,1.53,1.53,0,0,1,.83-1.3,1.93,1.93,0,0,1,2,.06,3.16,3.16,0,0,1,1.57,2.74v.19h.74V85.44h-.7l0,.16a.51.51,0,0,1-.21.37.77.77,0,0,1-.62-.08m13.8-58.74,2-6.24h-1.24l-.06.21c-.8,2.69-2.23,3.89-4.66,3.89h-5.3a.75.75,0,0,1-.76-.76V16.78h5.8c.83,0,1.2.87,1.2,1.69v.43h1.21V12.48h-1.21v.43c0,.7-.37,1.69-1.2,1.69h-5.8V7.51h6.24c1.53,0,2.55,1.2,2.66,3.12l0,.28h1.12l-.4-5.4H152.25V6.67h.43c1.12,0,1.64.61,1.64,1.92V24.07c0,1.33-.51,1.91-1.64,1.91h-.43v1.17ZM180,53.62c0,5.78-2.33,11.62-7.56,11.62-4.61,0-7.6-4.56-7.6-11.61,0-4.53,1.11-7.82,3.18-9.79A6.51,6.51,0,0,1,172.26,42h.05C176.13,42,180,45.6,180,53.62Zm5.5.19c-.17-11.08-8.72-14-13.17-14h0c-7.47.05-12.89,5.87-12.89,13.83,0,7,4.14,12.43,10.3,13.64,4,4.06,9.16,6.11,15.45,6.11h.3V72.1l-.28,0A10.09,10.09,0,0,1,177,66.72C182.17,64.88,185.48,60,185.48,53.81ZM207.23,1.38h1.17V0h-8.22V1.38h1.31A1.37,1.37,0,0,1,203,2.94V18.38c0,4.41-3.78,6.41-7.3,6.41s-6.19-2.76-6.19-6.72V3.56a2.2,2.2,0,0,1,2.09-2.18h.65V0H181.83V1.38h.6a2.17,2.17,0,0,1,2.09,2.18V17.94c0,5.63,4.42,9.56,10.75,9.56,6.15,0,10.44-3.75,10.44-9.12V2.94c0-1.06.48-1.56,1.52-1.56m.64,45.35h1V45.57H202.5v1.16h.87a1.08,1.08,0,0,1,1.17,1.16V60.2c0,3.31-2.92,5-5.8,5S194,63.06,194,59.94V48.47a1.73,1.73,0,0,1,1.51-1.74h.43V45.57h-8v.87l0,.29h.29a1.71,1.71,0,0,1,1.56,1.74V59.81c0,4.48,3.55,7.61,8.64,7.61s8.32-2.9,8.32-7.22V47.89c0-.75.38-1.16,1.07-1.16m23.62-40h.43V5.52h-6.41V6.68H226A1.39,1.39,0,0,1,227.54,8V19.18L215.75,5.52h-5.82V6.68h.3c.82,0,1.31.08,1.68.52s.49.56.74.85.36.43.59.69v16c0,.86-.81,1.25-1.56,1.25h-.51v1.21h6.46V25.94h-.43c-.82,0-1.65-.43-1.65-1.25V11.54l13.38,15.51.09.1h.87V8a1.43,1.43,0,0,1,1.6-1.29m3,20.47h8.09V26h-.38c-1.14,0-1.65-.58-1.65-1.91V8.59c0-1.31.53-1.92,1.65-1.92h.38V5.51h-8.09V6.67h.38c1.2,0,1.74.59,1.74,1.92V24.07c0,1.34-.52,1.91-1.74,1.91h-.38Zm30.9-20.48h.29V5.51h-5.44V6.67h.61a.82.82,0,0,1,.64.35.7.7,0,0,1,.1.66L256.64,20l-5.4-12.31A.7.7,0,0,1,251.3,7a.8.8,0,0,1,.59-.35h1V5.51h-7.73V6.67h.29c.66,0,1.16.48,1.67,1.59l8,18.57,0,.07a.84.84,0,0,0,.64.31h0a.66.66,0,0,0,.54-.35l7.29-18.5c.6-1.23,1.05-1.69,1.68-1.69M268.3,48V59.28L256.51,45.67l-.09-.1h-5.81v1.16h.3c.89,0,1.35.15,1.63.53l.31.33c.36.38.67.71,1.11,1.25V64.75c0,.89-.83,1.29-1.6,1.29h-.47V67.2h6.41V66h-.43c-.79,0-1.6-.4-1.6-1.29V51.6l13.34,15.5.08.1h.87V48a1.43,1.43,0,0,1,1.56-1.3h.47V45.57h-6.36v1.16h.42c.81,0,1.65.49,1.65,1.3m16.09-20.88,2-6.24h-1.24l-.06.21c-.85,2.69-2.29,3.89-4.66,3.89h-5.3a.74.74,0,0,1-.76-.76V16.78h5.75c1,0,1.25,1.06,1.25,1.69v.43h1.2V12.48h-1.2v.43c0,.65-.34,1.69-1.25,1.69h-5.75V7.51h6.23c1.5,0,2.55,1.23,2.67,3.12v.28h1.13L284,5.51h-15.7V6.67h.43c1.11,0,1.61.59,1.61,1.92V24.07c0,1.34-.49,1.91-1.61,1.91h-.43v1.17Zm-5.45,23a2.71,2.71,0,0,1,1.48-2.33,3.43,3.43,0,0,1,3.52.11,5.6,5.6,0,0,1,2.78,4.85V53h1.2V45.57h-1.15l0,.24a.9.9,0,0,1-.4.68,1.36,1.36,0,0,1-1.12-.14c-3.11-1.49-5.64-1.3-7.74.58a6,6,0,0,0-1.81,4.88,5.72,5.72,0,0,0,2.87,4.32c.51.32,1.06.65,1.62,1,1.9,1.13,3.87,2.3,4.69,3.44,1.07,1.48.84,2.92-.7,4.29a3.52,3.52,0,0,1-3.88.38,5.94,5.94,0,0,1-3.31-5.37v-.29h-1.21v7.65h1.16l0-.19a1.11,1.11,0,0,1,.57-.81.88.88,0,0,1,.82.08,10,10,0,0,0,4.42,1.13,6.2,6.2,0,0,0,3.87-1.25,5.77,5.77,0,0,0,1.81-7.34c-1.2-2.32-4.29-4-6.78-5.39l-.44-.24a3.8,3.8,0,0,1-2.26-3.08m17.44-34.59H294.9V7.71a3.42,3.42,0,0,1,1.48-.24,4.09,4.09,0,0,1,4.29,3.94,4.22,4.22,0,0,1-4.29,4.12m6.82,11.62h5.21V26H308c-.59,0-1.06-.56-1.56-1.15l-6.12-8c2.78-1,4.6-3.11,4.57-5.45a5.28,5.28,0,0,0-1.53-4c-1.6-1.49-4.46-2.11-8.73-1.87H288.8V6.68h.52c1.08,0,1.6.62,1.6,1.91V24.08c0,1.32-.49,1.91-1.6,1.91h-.52v1.16H297V26h-.43c-1.14,0-1.65-.59-1.65-1.91V17.44h.93Zm5.13,40.05,1.9-6.32H309l-.07.2c-.86,2.79-2.3,4-4.66,4h-4.89c-.4,0-.81-.52-.81-1V48.73c0-1.39.52-2,1.69-2h.42V45.57h-8.17v1.16H293c1.08,0,1.61.65,1.61,2V64.08c0,1.75-.92,2-1.61,2h-.47V67.2Zm10.08-8.82,2.65-6.09,2.63,6.09Zm-6.76,7.67H311v1.16h6.19V66.05h-.56a1.07,1.07,0,0,1-.85-.43.64.64,0,0,1-.07-.61l1.91-4.5h7.07l2,4.49a.69.69,0,0,1-.07.68.81.81,0,0,1-.67.37H325v1.16h7.91V66.05h-.51c-.66,0-1.21-.53-1.67-1.63l-8.15-18.81a.8.8,0,0,0-.53-.46.75.75,0,0,0-.68.31l-7.81,18.86c-.37.79-1,1.73-1.9,1.73M324,18.69c-1.24-2.37-4.38-4.13-7.21-5.59a3.83,3.83,0,0,1-2.22-3A2.85,2.85,0,0,1,316,7.65a3.6,3.6,0,0,1,3.63.17,5.54,5.54,0,0,1,2.73,4.78v.3h1.11V5.52h-1.07l0,.24a.78.78,0,0,1-.33.6,1.59,1.59,0,0,1-1.24-.16c-3.18-1.44-5.6-1.24-7.65.63a5.93,5.93,0,0,0-1.87,4.87A5.68,5.68,0,0,0,314.07,16l1.53.92c1.86,1.11,4,2.37,4.79,3.5,1.12,1.5.88,2.9-.71,4.28a3.44,3.44,0,0,1-3.84.43,5.94,5.94,0,0,1-3.3-5.42v-.29h-1.21v7.74h1.14l.06-.22a1.18,1.18,0,0,1,.65-.83.81.81,0,0,1,.73.09,9.18,9.18,0,0,0,4.28,1.12,6.4,6.4,0,0,0,4-1.28A5.79,5.79,0,0,0,324,18.69m4.4,8.45h8.18V26h-.43c-1.14,0-1.65-.59-1.65-1.91V8.59c0-1.31.53-1.92,1.65-1.92h.43V5.51h-8.18V6.67h.52c1.1,0,1.6.59,1.6,1.92V24.07c0,1.34-.48,1.91-1.6,1.91h-.52Zm29.07-16h1.11l-.23-5.15a.47.47,0,0,0-.42-.43H340.52a.47.47,0,0,0-.43.42l-.19,5.16H341l0-.28c.12-2.1.89-3.12,2.35-3.12h3.94V24.2c0,1.25-.52,1.78-1.74,1.78h-.38v1.17h8.09V26h-.38c-1.19,0-1.65-.5-1.65-1.78V7.69h3.9c.91,0,2.14.32,2.31,3.12ZM368,47.32c3-.08,5.35.76,6.93,2.5a9.91,9.91,0,0,1,2.22,6.51c0,5.67-3.32,8.92-9.11,8.92a6.5,6.5,0,0,1-1.77-.19V47.54A6.66,6.66,0,0,1,368,47.32Zm.06-1.74h-8.3v1.17h.47c.69,0,1.61.2,1.61,2V64.09c0,1.36-.5,2-1.61,2h-.47v1.16h10a10.87,10.87,0,0,0,11.14-10.82,10.51,10.51,0,0,0-2.7-7.5C376,46.56,372.55,45.43,368,45.58ZM380.94,6.72V5.51h-5.75V6.72H376a.5.5,0,0,1,.4.28.73.73,0,0,1,0,.69l-4.57,7.79-5-7.65a.78.78,0,0,1,0-.79.62.62,0,0,1,.52-.32h.78V5.51h-8V6.72h.3c.52,0,1.22.17,2,1.54L368.75,18v6.05c0,1.39-.48,2-1.65,2h-.43v1.16h8.27V26h-.43c-1.22,0-1.69-.53-1.69-1.87V17.88l5.69-9.71a2.66,2.66,0,0,1,2.13-1.45Z"/></svg>